<svg width="165" height="55" viewBox="0 0 165 55" fill="none" xmlns="http://www.w3.org/2000/svg">
  <path
    d="M9.53906 50C7.92969 50 6.70312 49.7969 5.85938 49.3906C5.03125 48.9844 4.46875 48.3203 4.17188 47.3984C3.89062 46.4766 3.75 45.25 3.75 43.7188V22.6719C3.75 21.1094 3.89062 19.875 4.17188 18.9688C4.46875 18.0469 5.03125 17.3906 5.85938 17C6.70312 16.5938 7.92969 16.3906 9.53906 16.3906H16.7344C20.0938 16.3906 23.0312 16.8906 25.5469 17.8906C28.0781 18.8906 30.0469 20.5859 31.4531 22.9766C32.8594 25.3516 33.5625 28.6172 33.5625 32.7734C33.5625 36.9297 32.8594 40.2734 31.4531 42.8047C30.0469 45.3203 28.0781 47.1484 25.5469 48.2891C23.0312 49.4297 20.0938 50 16.7344 50H9.53906ZM13.9922 22.5547C12.9609 22.5547 12.2578 22.7734 11.8828 23.2109C11.5078 23.6484 11.3203 24.3984 11.3203 25.4609V40.9297C11.3203 41.9766 11.5078 42.7266 11.8828 43.1797C12.2578 43.6328 12.9609 43.8594 13.9922 43.8594H15.0703C18.4141 43.8594 21 43.0391 22.8281 41.3984C24.6719 39.7578 25.5938 36.9141 25.5938 32.8672C25.5938 30.1641 25.1719 28.0703 24.3281 26.5859C23.5 25.0859 22.2969 24.0391 20.7188 23.4453C19.1406 22.8516 17.2422 22.5547 15.0234 22.5547H13.9922ZM44.9512 48.2891C44.4981 47.5859 44.0137 46.6094 43.4981 45.3594C42.9825 44.0938 42.4747 42.6953 41.9747 41.1641C41.4747 39.6172 41.0137 38.0781 40.5919 36.5469C40.1856 35 39.8575 33.5859 39.6075 32.3047C39.3575 31.0078 39.2325 29.9922 39.2325 29.2578C39.2325 28.9453 39.3184 28.6875 39.4903 28.4844C40.2091 27.5938 41.2325 26.6641 42.5606 25.6953C42.795 25.5391 43.0059 25.4609 43.1934 25.4609C43.3966 25.4609 43.6075 25.5391 43.8262 25.6953C44.545 26.2109 45.1466 26.6953 45.6309 27.1484C46.1309 27.6016 46.5528 28.0469 46.8966 28.4844C47.0684 28.6875 47.1544 28.9766 47.1544 29.3516V29.2344C47.1544 30.2031 47.2091 31.3203 47.3184 32.5859C47.4434 33.8516 47.6153 35.1562 47.8341 36.5C48.0528 37.8438 48.3106 39.125 48.6075 40.3438C48.92 41.5625 49.2637 42.6094 49.6387 43.4844H49.7794C50.1856 42.6094 50.6153 41.4688 51.0684 40.0625C51.5216 38.6562 51.9512 37.1719 52.3575 35.6094C52.7794 34.0312 53.1544 32.5469 53.4825 31.1562C53.8106 29.7656 54.045 28.6641 54.1856 27.8516C54.295 27.2422 54.5372 26.8359 54.9122 26.6328C55.3028 26.4297 55.8419 26.3281 56.5294 26.3281H59.2481C60.0294 26.3281 60.5841 26.4453 60.9122 26.6797C61.2559 26.9141 61.4669 27.3047 61.545 27.8516C61.67 28.6953 61.8966 29.8359 62.2247 31.2734C62.5528 32.6953 62.92 34.2031 63.3262 35.7969C63.7481 37.3906 64.17 38.8828 64.5919 40.2734C65.0137 41.6641 65.3731 42.7344 65.67 43.4844H65.8341C66.3028 42.4531 66.7481 41.125 67.17 39.5C67.5919 37.8594 67.9356 36.1328 68.2012 34.3203C68.4669 32.5078 68.5997 30.8203 68.5997 29.2578V29.3516C68.5997 28.9766 68.6778 28.6875 68.8341 28.4844C69.1934 28.0469 69.6153 27.6016 70.0997 27.1484C70.5841 26.6953 71.17 26.2109 71.8575 25.6953C72.0762 25.5391 72.2794 25.4609 72.4669 25.4609C72.6856 25.4609 72.8887 25.5391 73.0762 25.6953C73.7794 26.2109 74.3731 26.6953 74.8575 27.1484C75.3419 27.6016 75.7559 28.0469 76.0997 28.4844C76.2559 28.6875 76.3341 28.9609 76.3341 29.3047C76.3184 30.0703 76.17 31.0938 75.8887 32.375C75.6075 33.6406 75.2325 35.0312 74.7637 36.5469C74.3106 38.0625 73.8028 39.5781 73.2403 41.0938C72.6934 42.6094 72.1309 44 71.5528 45.2656C70.9903 46.5312 70.4669 47.5391 69.9825 48.2891C69.67 48.7734 69.3966 49.1406 69.1622 49.3906C68.9278 49.6406 68.6387 49.8047 68.295 49.8828C67.9669 49.9609 67.4747 50 66.8184 50H64.17C63.4356 50 62.8575 49.8984 62.4356 49.6953C62.0294 49.4766 61.6466 49.0078 61.2872 48.2891C61.0684 47.8672 60.8028 47.1641 60.4903 46.1797C60.1778 45.1797 59.8575 44.0938 59.5294 42.9219C59.2012 41.7344 58.9122 40.625 58.6622 39.5938C58.4122 38.5625 58.2481 37.8047 58.17 37.3203C58.0919 36.8516 58.0059 36.2812 57.9122 35.6094C57.8341 34.9375 57.7794 34.4062 57.7481 34.0156H57.6309C57.6153 34.4062 57.5606 34.9375 57.4669 35.6094C57.3887 36.2656 57.3028 36.8438 57.2091 37.3438C57.1153 37.7812 56.9434 38.4609 56.6934 39.3828C56.4434 40.2891 56.1387 41.2969 55.7794 42.4062C55.4356 43.5 55.0684 44.5703 54.6778 45.6172C54.3028 46.6641 53.9434 47.5547 53.5997 48.2891C53.2559 49.0078 52.8575 49.4766 52.4044 49.6953C51.9669 49.8984 51.2637 50 50.295 50H47.5762C46.8106 50 46.2872 49.8828 46.0059 49.6484C45.7403 49.4141 45.3887 48.9609 44.9512 48.2891ZM39.2325 29.2109V29.2578C39.2325 29.2891 39.2325 29.3203 39.2325 29.3516V29.2109ZM76.3341 29.2578V29.3516V29.3047C76.3341 29.2891 76.3341 29.2734 76.3341 29.2578ZM94.8478 50.5859C92.2072 50.5859 89.9103 50.1641 87.9572 49.3203C86.0041 48.4609 84.4884 47.1328 83.4103 45.3359C82.3322 43.5391 81.7931 41.2188 81.7931 38.375C81.7931 34.1094 82.8869 30.8828 85.0744 28.6953C87.2619 26.5078 90.1681 25.4141 93.7931 25.4141C96.1525 25.4141 98.1447 25.8359 99.7697 26.6797C101.41 27.5234 102.652 28.6875 103.496 30.1719C104.356 31.6562 104.785 33.3516 104.785 35.2578C104.785 37.1172 104.309 38.4141 103.356 39.1484C102.402 39.8828 101.012 40.25 99.1837 40.25H89.1291C89.2541 41.8594 89.84 43.0859 90.8869 43.9297C91.9494 44.7734 93.3869 45.1953 95.1994 45.1953C96.6369 45.1953 97.7853 44.9844 98.6447 44.5625C99.5197 44.125 100.129 43.7812 100.473 43.5312C100.77 43.3125 101.106 43.2109 101.481 43.2266C101.777 43.2266 102.199 43.2891 102.746 43.4141C103.309 43.5234 103.863 43.7344 104.41 44.0469C104.801 44.25 104.996 44.5312 104.996 44.8906C104.996 45.0938 104.957 45.3828 104.879 45.7578C104.832 45.9766 104.754 46.2969 104.645 46.7188C104.535 47.125 104.395 47.5078 104.223 47.8672C104.129 48.0391 103.981 48.2031 103.777 48.3594C103.465 48.5781 102.957 48.8672 102.254 49.2266C101.567 49.5859 100.621 49.8984 99.4181 50.1641C98.215 50.4453 96.6916 50.5859 94.8478 50.5859ZM89.0822 35.4453H96.7228C97.5197 35.4453 97.9181 35.0781 97.9181 34.3438C97.9181 33.2344 97.5666 32.3047 96.8634 31.5547C96.1759 30.7891 95.1369 30.4062 93.7462 30.4062C92.2306 30.4062 91.1134 30.8906 90.3947 31.8594C89.6916 32.8281 89.2541 34.0234 89.0822 35.4453ZM114.932 50.4922C114.604 50.6328 114.369 50.7031 114.229 50.7031C114.088 50.7031 113.94 50.6484 113.783 50.5391C113.424 50.2891 113.01 49.6797 112.541 48.7109C112.088 47.7266 111.862 46.2188 111.862 44.1875V17.0469C111.862 16.6719 111.94 16.3828 112.096 16.1797C112.752 15.3203 113.713 14.3906 114.979 13.3906C115.198 13.2344 115.393 13.1562 115.565 13.1562C115.768 13.1562 115.963 13.2344 116.151 13.3906C116.823 13.9062 117.385 14.3906 117.838 14.8438C118.307 15.2969 118.705 15.7422 119.033 16.1797C119.19 16.3828 119.268 16.6719 119.268 17.0469V42.7578C119.268 43.7891 119.354 44.6719 119.526 45.4062C119.698 46.125 119.901 46.7031 120.135 47.1406C120.401 47.6562 120.299 48.0234 119.83 48.2422L114.932 50.4922ZM130.68 50.4922C130.352 50.6328 130.118 50.7031 129.977 50.7031C129.836 50.7031 129.688 50.6484 129.532 50.5391C129.172 50.2891 128.758 49.6797 128.289 48.7109C127.836 47.7266 127.61 46.2188 127.61 44.1875V17.0469C127.61 16.6719 127.688 16.3828 127.844 16.1797C128.5 15.3203 129.461 14.3906 130.727 13.3906C130.946 13.2344 131.141 13.1562 131.313 13.1562C131.516 13.1562 131.711 13.2344 131.899 13.3906C132.571 13.9062 133.133 14.3906 133.586 14.8438C134.055 15.2969 134.453 15.7422 134.782 16.1797C134.938 16.3828 135.016 16.6719 135.016 17.0469V42.7578C135.016 43.7891 135.102 44.6719 135.274 45.4062C135.446 46.125 135.649 46.7031 135.883 47.1406C136.149 47.6562 136.047 48.0234 135.578 48.2422L130.68 50.4922ZM150.764 30.4531H150.858C152.03 27.2031 154.139 25.5781 157.186 25.5781C157.577 25.5781 157.897 25.6016 158.147 25.6484C158.397 25.6797 158.569 25.7109 158.663 25.7422C158.897 25.8203 159.014 26 159.014 26.2812V31.9297C159.014 32.4141 158.733 32.5469 158.17 32.3281C157.983 32.25 157.709 32.1719 157.35 32.0938C157.006 32 156.522 31.9531 155.897 31.9531C154.288 31.9531 153.03 32.5469 152.123 33.7344C151.217 34.9062 150.764 36.5078 150.764 38.5391V48.7578C150.764 49.2266 150.663 49.5547 150.459 49.7422C150.272 49.9141 149.944 50 149.475 50H144.647C144.178 50 143.842 49.9141 143.639 49.7422C143.452 49.5547 143.358 49.2266 143.358 48.7578V29.1172C143.358 28.7422 143.436 28.4531 143.592 28.25C143.92 27.8125 144.311 27.3672 144.764 26.9141C145.233 26.4609 145.803 25.9766 146.475 25.4609C146.6 25.3672 146.725 25.3047 146.85 25.2734C146.975 25.2422 147.084 25.2266 147.178 25.2266C147.397 25.2266 147.616 25.3047 147.834 25.4609C149.131 26.4766 150.038 27.3438 150.553 28.0625C150.694 28.25 150.764 28.4688 150.764 28.7188V30.4531Z"
    fill="currentColor" />
  <path
    d="M107.182 25.5924C107.072 25.8244 106.981 25.9773 106.909 26.0512C106.837 26.1252 106.739 26.1801 106.614 26.2161C106.328 26.2993 105.866 26.2595 105.229 26.0964C104.594 25.9186 103.859 25.4004 103.024 24.5419L91.8788 13.0702C91.7248 12.9117 91.646 12.7484 91.6424 12.5804C91.6247 11.8721 91.7338 10.974 91.9697 9.88586C92.0172 9.70481 92.0849 9.5691 92.1727 9.47873C92.2765 9.37193 92.4083 9.30227 92.5683 9.26973C93.1232 9.13442 93.6095 9.04341 94.027 8.99669C94.4526 8.94175 94.839 8.9205 95.1863 8.9329C95.3495 8.9366 95.5081 9.01771 95.6621 9.17621L106.221 20.0436C106.644 20.4795 107.051 20.8074 107.44 21.0274C107.823 21.2409 108.164 21.3784 108.463 21.4401C108.811 21.5184 108.91 21.727 108.76 22.0659L107.182 25.5924Z"
    fill="currentColor" />
  <path
    d="M100.913 18.1031C101.166 18.1366 101.348 18.1533 101.456 18.1533C101.565 18.1533 101.679 18.1403 101.8 18.1143C102.078 18.0549 102.398 17.9101 102.76 17.6798C103.11 17.4459 103.285 17.0876 103.285 16.6049V10.1552C103.285 10.0661 103.224 9.99741 103.104 9.94914C102.597 9.74492 101.854 9.52399 100.877 9.28635C100.708 9.24922 100.557 9.23065 100.424 9.23065C100.267 9.23065 100.117 9.24922 99.9717 9.28635C99.4527 9.40888 99.0182 9.52399 98.6683 9.63167C98.3062 9.73935 97.9984 9.84517 97.745 9.94914C97.6243 9.99741 97.564 10.0661 97.564 10.1552V16.2651C97.564 16.5102 97.4976 16.72 97.3648 16.8945C97.2321 17.0653 97.0752 17.2027 96.8941 17.3067C96.689 17.4292 96.7674 17.5165 97.1295 17.5685L100.913 18.1031Z"
    fill="currentColor" />
  <path
    d="M80.8181 25.5924C80.928 25.8244 81.0188 25.9773 81.0907 26.0512C81.1625 26.1252 81.2608 26.1801 81.3855 26.2161C81.6717 26.2993 82.1335 26.2595 82.7708 26.0964C83.4065 25.9186 84.1414 25.4004 84.9756 24.5419L96.1212 13.0702C96.2752 12.9117 96.354 12.7484 96.3576 12.5804C96.3753 11.8721 96.2662 10.974 96.0303 9.88586C95.9828 9.70481 95.9151 9.5691 95.8273 9.47873C95.7235 9.37193 95.5917 9.30227 95.4317 9.26973C94.8768 9.13442 94.3905 9.04341 93.973 8.99669C93.5474 8.94175 93.161 8.9205 92.8137 8.9329C92.6505 8.9366 92.4919 9.01771 92.3379 9.17621L81.7794 20.0436C81.3559 20.4795 80.9495 20.8074 80.5601 21.0274C80.1771 21.2409 79.836 21.3784 79.5366 21.4401C79.1892 21.5184 79.0903 21.727 79.2399 22.0659L80.8181 25.5924Z"
    fill="currentColor" />
</svg>